# CARGO DECK Operator | 1.82m human scale | Z-up | -Y forward
mtllib cargo-deck-operator.mtl
v -0.1700 -0.1250 0.7200
v 0.1700 -0.1250 0.7200
v -0.1700 0.1250 0.7200
v 0.1700 0.1250 0.7200
v -0.1700 -0.1250 0.9400
v 0.1700 -0.1250 0.9400
v -0.1700 0.1250 0.9400
v 0.1700 0.1250 0.9400
v -0.2750 -0.1500 1.0500
v 0.2750 -0.1500 1.0500
v -0.2750 0.1500 1.0500
v 0.2750 0.1500 1.0500
v -0.2750 -0.1500 1.5500
v 0.2750 -0.1500 1.5500
v -0.2750 0.1500 1.5500
v 0.2750 0.1500 1.5500
v -0.2400 -0.2100 1.1600
v 0.2400 -0.2100 1.1600
v -0.2400 -0.1300 1.1600
v 0.2400 -0.1300 1.1600
v -0.2400 -0.2100 1.4800
v 0.2400 -0.2100 1.4800
v -0.2400 -0.1300 1.4800
v 0.2400 -0.1300 1.4800
v -0.1350 -0.1350 1.5600
v 0.1350 -0.1350 1.5600
v -0.1350 0.1350 1.5600
v 0.1350 0.1350 1.5600
v -0.1350 -0.1350 1.8600
v 0.1350 -0.1350 1.8600
v -0.1350 0.1350 1.8600
v 0.1350 0.1350 1.8600
v -0.1550 -0.1500 1.7400
v 0.1550 -0.1500 1.7400
v -0.1550 0.1500 1.7400
v 0.1550 0.1500 1.7400
v -0.1550 -0.1500 1.8600
v 0.1550 -0.1500 1.8600
v -0.1550 0.1500 1.8600
v 0.1550 0.1500 1.8600
v -0.1150 -0.1725 1.6200
v 0.1150 -0.1725 1.6200
v -0.1150 -0.1375 1.6200
v 0.1150 -0.1375 1.6200
v -0.1150 -0.1725 1.7150
v 0.1150 -0.1725 1.7150
v -0.1150 -0.1375 1.7150
v 0.1150 -0.1375 1.7150
v -0.4400 -0.1400 0.9600
v -0.2800 -0.1400 0.9600
v -0.4400 0.0600 0.9600
v -0.2800 0.0600 0.9600
v -0.4400 -0.1400 1.5800
v -0.2800 -0.1400 1.5800
v -0.4400 0.0600 1.5800
v -0.2800 0.0600 1.5800
v 0.2800 -0.1400 0.9600
v 0.4400 -0.1400 0.9600
v 0.2800 0.0600 0.9600
v 0.4400 0.0600 0.9600
v 0.2800 -0.1400 1.5800
v 0.4400 -0.1400 1.5800
v 0.2800 0.0600 1.5800
v 0.4400 0.0600 1.5800
v -0.2150 -0.1100 0.4300
v -0.0250 -0.1100 0.4300
v -0.2150 0.1100 0.4300
v -0.0250 0.1100 0.4300
v -0.2150 -0.1100 1.0100
v -0.0250 -0.1100 1.0100
v -0.2150 0.1100 1.0100
v -0.0250 0.1100 1.0100
v 0.0250 -0.1100 0.4300
v 0.2150 -0.1100 0.4300
v 0.0250 0.1100 0.4300
v 0.2150 0.1100 0.4300
v 0.0250 -0.1100 1.0100
v 0.2150 -0.1100 1.0100
v 0.0250 0.1100 1.0100
v 0.2150 0.1100 1.0100
v -0.2150 -0.2050 0.0000
v -0.0250 -0.2050 0.0000
v -0.2150 0.0950 0.0000
v -0.0250 0.0950 0.0000
v -0.2150 -0.2050 0.1300
v -0.0250 -0.2050 0.1300
v -0.2150 0.0950 0.1300
v -0.0250 0.0950 0.1300
v 0.0250 -0.2050 0.0000
v 0.2150 -0.2050 0.0000
v 0.0250 0.0950 0.0000
v 0.2150 0.0950 0.0000
v 0.0250 -0.2050 0.1300
v 0.2150 -0.2050 0.1300
v 0.0250 0.0950 0.1300
v 0.2150 0.0950 0.1300
v -0.0500 -0.4600 1.0900
v 0.0500 -0.4600 1.0900
v -0.0500 -0.3400 1.0900
v 0.0500 -0.3400 1.0900
v -0.0500 -0.4600 1.6700
v 0.0500 -0.4600 1.6700
v -0.0500 -0.3400 1.6700
v 0.0500 -0.3400 1.6700
v -0.1900 0.0800 1.0800
v 0.1900 0.0800 1.0800
v -0.1900 0.2600 1.0800
v 0.1900 0.2600 1.0800
v -0.1900 0.0800 1.5000
v 0.1900 0.0800 1.5000
v -0.1900 0.2600 1.5000
v 0.1900 0.2600 1.5000
g Pelvis
usemtl ArmorDark
f 1 2 4 3
f 5 7 8 6
f 1 5 6 2
f 3 4 8 7
f 1 3 7 5
f 2 6 8 4
g Torso
usemtl Armor
f 9 10 12 11
f 13 15 16 14
f 9 13 14 10
f 11 12 16 15
f 9 11 15 13
f 10 14 16 12
g Chest
usemtl Plate
f 17 18 20 19
f 21 23 24 22
f 17 21 22 18
f 19 20 24 23
f 17 19 23 21
f 18 22 24 20
g Head
usemtl Plate
f 25 26 28 27
f 29 31 32 30
f 25 29 30 26
f 27 28 32 31
f 25 27 31 29
f 26 30 32 28
g Helmet
usemtl ArmorDark
f 33 34 36 35
f 37 39 40 38
f 33 37 38 34
f 35 36 40 39
f 33 35 39 37
f 34 38 40 36
g Visor
usemtl Visor
f 41 42 44 43
f 45 47 48 46
f 41 45 46 42
f 43 44 48 47
f 41 43 47 45
f 42 46 48 44
g LArm
usemtl Plate
f 49 50 52 51
f 53 55 56 54
f 49 53 54 50
f 51 52 56 55
f 49 51 55 53
f 50 54 56 52
g RArm
usemtl Plate
f 57 58 60 59
f 61 63 64 62
f 57 61 62 58
f 59 60 64 63
f 57 59 63 61
f 58 62 64 60
g LLeg
usemtl ArmorDark
f 65 66 68 67
f 69 71 72 70
f 65 69 70 66
f 67 68 72 71
f 65 67 71 69
f 66 70 72 68
g RLeg
usemtl ArmorDark
f 73 74 76 75
f 77 79 80 78
f 73 77 78 74
f 75 76 80 79
f 73 75 79 77
f 74 78 82 76
g LBoot
usemtl Plate
f 81 82 84 83
f 85 87 88 86
f 81 85 86 82
f 83 84 88 87
f 81 83 87 85
f 82 86 88 84
g RBoot
usemtl Plate
f 89 90 92 91
f 93 95 96 94
f 89 93 94 90
f 91 92 96 95
f 89 91 95 93
f 90 94 96 92
g Weapon
usemtl Weapon
f 97 98 100 99
f 101 103 104 102
f 97 101 102 98
f 99 100 104 103
f 97 99 103 101
f 98 102 104 100
g BackPack
usemtl ArmorDark
f 105 106 108 107
f 109 111 112 110
f 105 109 110 106
f 107 108 112 111
f 105 107 111 109
f 106 110 112 108