<svg xmlns="http://www.w3.org/2000/svg" width="1500" height="1180" viewBox="0 0 1500 1180">
<defs>
 <linearGradient id="ground" x2="0" y2="1"><stop stop-color="#405844"/><stop offset="1" stop-color="#26382c"/></linearGradient>
 <linearGradient id="road" x2="0" y2="1"><stop stop-color="#41484a"/><stop offset="1" stop-color="#292f31"/></linearGradient>
 <linearGradient id="roof" x2="0" y2="1"><stop stop-color="#555c5d"/><stop offset="1" stop-color="#303638"/></linearGradient>
 <linearGradient id="wall" x2="0" y2="1"><stop stop-color="#81796e"/><stop offset="1" stop-color="#514b47"/></linearGradient>
 <pattern id="grass" width="46" height="46" patternUnits="userSpaceOnUse"><rect width="46" height="46" fill="url(#ground)"/><path d="M5 32l3-5m13 14 2-7m17-17 3-5M29 8l2-4" stroke="#5b7452" opacity=".35"/></pattern>
 <filter id="shadow"><feGaussianBlur stdDeviation="7"/></filter>
 <g id="tree"><ellipse cx="0" cy="12" rx="25" ry="9" fill="#18241d" opacity=".55"/><path d="M-4 10h8V-8h-8z" fill="#574738"/><circle cx="-12" cy="-14" r="18" fill="#2c5434"/><circle cx="10" cy="-16" r="20" fill="#3d7040"/><circle cx="0" cy="-30" r="16" fill="#4c7c45"/><circle cx="-16" cy="-29" r="11" fill="#355f39"/><circle cx="15" cy="-32" r="12" fill="#315d38"/><path d="M-17-17Q0-42 19-22" fill="none" stroke="#6f9651" opacity=".5" stroke-width="3"/></g>
 <g id="car"><ellipse cx="0" cy="13" rx="30" ry="10" fill="#101416" opacity=".6"/><path d="M-25 8l6-19h29l14 19z" fill="#6b716f" stroke="#252b2d" stroke-width="3"/><path d="M-15-8h11l3 11h-17zm15 0h10l7 11H3z" fill="#33494e"/><circle cx="-16" cy="9" r="6" fill="#181b1c"/><circle cx="19" cy="9" r="6" fill="#181b1c"/><rect x="22" y="-2" width="4" height="5" fill="#b99b62"/></g>
 <g id="lamp"><path d="M0 0V-55" stroke="#1c2425" stroke-width="5"/><path d="M0-55q15-12 28 0" fill="none" stroke="#202729" stroke-width="5"/><circle cx="28" cy="-55" r="5" fill="#e5cf8a"/><circle cx="28" cy="-55" r="15" fill="#e5cf8a" opacity=".13"/></g>
</defs>
<rect width="1500" height="1180" fill="url(#grass)"/>
<!-- arterial roads -->
<path d="M0 400H1500V525H0zM600 0H725V1180H600zM0 850H600V952H0zM70 210H600V275H70zM725 210H1500V275H725zM725 675H1500V750H725zM725 830H1500V905H725z" fill="url(#road)"/>
<g stroke="#c7b46b" stroke-width="3" stroke-dasharray="34 24" opacity=".7"><path d="M0 462H1500"/><path d="M662 0V1180"/></g>
<g fill="#9da19a"><path d="M0 394H1500v8H0zM0 525h1500v8H0zM592 0h8v1180h-8zM725 0h8v1180h-8z"/></g>
<!-- crosswalks -->
<g fill="#d4d0bd" opacity=".8"><path d="M75 397h90v10H75zm0 18h90v10H75zm0 18h90v10H75zm0 18h90v10H75z"/><path d="M1330 520h130v9h-130zm0 17h130v9h-130zm0 17h130v9h-130z"/></g>
<!-- sidewalks and yards -->
<g fill="#8b8e87" opacity=".85"><path d="M0 378h1500v16H0zM0 533h1500v14H0zM584 0h16v1180h-16zM725 0h16v1180h-16z"/></g>
<!-- building shadows -->
<g fill="#121817" opacity=".45" filter="url(#shadow)">
 <rect x="25" y="35" width="300" height="155"/><rect x="335" y="40" width="220" height="145"/>
 <rect x="770" y="35" width="300" height="150"/><rect x="1085" y="40" width="250" height="145"/>
 <rect x="35" y="565" width="285" height="175"/><rect x="350" y="570" width="205" height="180"/>
 <rect x="755" y="555" width="275" height="125"/><rect x="1040" y="555" width="240" height="125"/>
</g>
<!-- 5-storey panel buildings -->
<g stroke="#272d2e" stroke-width="3">
 <g transform="translate(25 25)">
  <path d="M0 145h300l18 22H18z" fill="#383f40"/><path d="M0 0h300v145H0z" fill="url(#wall)"/><path d="M0 0h300v22H0z" fill="url(#roof)"/>
  <path d="M10 28h280M10 58h280M10 88h280M10 118h280M70 23v122M145 23v122M220 23v122" stroke="#454b4b"/>
  <g fill="#668083" stroke="#262d2e"><path d="M18 32h38v20H18zm55 0h38v20H73zm55 0h38v20h-38zm55 0h38v20h-38zm55 0h38v20h-38z"/><path d="M18 63h38v20H18zm55 0h38v20H73zm55 0h38v20h-38zm55 0h38v20h-38zm55 0h38v20h-38z"/><path d="M18 94h38v20H18zm55 0h38v20H73zm55 0h38v20h-38zm55 0h38v20h-38zm55 0h38v20h-38z"/></g>
  <g fill="#74604c"><rect x="18" y="122" width="42" height="23"/><rect x="130" y="122" width="42" height="23"/><rect x="242" y="122" width="42" height="23"/></g>
  <g fill="#74716a"><rect x="25" y="-8" width="34" height="10"/><rect x="132" y="-8" width="34" height="10"/><rect x="240" y="-8" width="34" height="10"/></g>
 </g>
 <g transform="translate(335 32)">
  <path d="M0 140h220l15 20H15z" fill="#383f40"/><path d="M0 0h220v140H0z" fill="#705f51"/><path d="M0 0h220v22H0z" fill="#555b5b"/>
  <g stroke="#3f3832" stroke-width="4" opacity=".75"><path d="M0 35h220M0 70h220M0 105h220"/><path d="M45 22v118M110 22v118M175 22v118"/></g>
  <g fill="#596f70"><path d="M12 40h25v18H12zm45 0h25v18H57zm45 0h25v18h-25zm45 0h25v18h-25zm45 0h25v18h-25z"/><path d="M12 78h25v18H12zm45 0h25v18H57zm45 0h25v18h-25zm45 0h25v18h-25zm45 0h25v18h-25z"/></g>
 </g>
 <g transform="translate(770 28)">
  <path d="M0 148h300l18 22H18z" fill="#353c3d"/><path d="M0 0h300v148H0z" fill="#70706a"/><path d="M0 0h300v22H0z" fill="#4d5657"/>
  <path d="M0 50h300M0 100h300M75 22v126M150 22v126M225 22v126" stroke="#4f5554"/>
  <g fill="#657e80"><path d="M15 28h46v17H15zm70 0h46v17H85zm70 0h46v17h-46zm70 0h46v17h-46zm70 0h28v17h-28z"/><path d="M15 78h46v17H15zm70 0h46v17H85zm70 0h46v17h-46zm70 0h46v17h-46zm70 0h28v17h-28z"/></g>
 </g>
 <g transform="translate(1085 40)">
  <path d="M0 135h250l15 20H15z" fill="#373d3e"/><path d="M0 0h250v135H0z" fill="#655b52"/><path d="M0 0h250v20H0z" fill="#555b5a"/>
  <path d="M0 45h250M0 90h250M62 20v115M125 20v115M188 20v115" stroke="#4a4039"/>
  <g fill="#596f70"><path d="M10 26h38v15H10zm52 0h38v15H62zm52 0h38v15h-38zm52 0h38v15h-38zm52 0h30v15h-30z"/><path d="M10 71h38v15H10zm52 0h38v15H62zm52 0h38v15h-38zm52 0h38v15h-38zm52 0h30v15h-30z"/></g>
 </g>
</g>
<!-- school -->
<g transform="translate(30 285)"><path d="M0 82h260l16 20H16z" fill="#303839"/><rect width="260" height="82" fill="#767a71" stroke="#303536" stroke-width="4"/><path d="M0 20h260M52 0v82M104 0v82M156 0v82M208 0v82" stroke="#555a55" stroke-width="4"/><g fill="#657c7c"><rect x="12" y="29" width="30" height="27"/><rect x="64" y="29" width="30" height="27"/><rect x="116" y="29" width="30" height="27"/><rect x="168" y="29" width="30" height="27"/><rect x="220" y="29" width="30" height="27"/></g><rect x="84" y="60" width="92" height="22" fill="#554b42"/><text x="130" y="16" text-anchor="middle" font-family="Arial" font-weight="700" font-size="13" fill="#e2ddd0">ШКОЛА</text></g>
<!-- brick houses -->
<g transform="translate(48 575)"><path d="M0 160h270l16 22H16z" fill="#303536"/><rect width="270" height="160" fill="#704f43" stroke="#292e2f" stroke-width="4"/><path d="M0 35h270M0 68h270M0 101h270M0 134h270M54 0v160M108 0v160M162 0v160M216 0v160" stroke="#583e37" stroke-width="3"/><g fill="#5b7071"><path d="M12 10h32v18H12zm54 0h32v18H66zm54 0h32v18h-32zm54 0h32v18h-32zm54 0h32v18h-32z"/><path d="M12 43h32v18H12zm54 0h32v18H66zm54 0h32v18h-32zm54 0h32v18h-32zm54 0h32v18h-32z"/><path d="M12 76h32v18H12zm54 0h32v18H66zm54 0h32v18h-32zm54 0h32v18h-32zm54 0h32v18h-32z"/><path d="M12 109h32v18H12zm54 0h32v18H66zm54 0h32v18h-32zm54 0h32v18h-32zm54 0h32v18h-32z"/></g></g>
<!-- garages -->
<g fill="#653f36" stroke="#302f2d" stroke-width="4"><path d="M1040 735h390l25 28H1065z" fill="#373b3b"/><path d="M1040 600h390v135h-390z"/><path d="M1040 600h390v22h-390z" fill="#514d46"/><path d="M1090 622v113M1140 622v113M1190 622v113M1240 622v113M1290 622v113M1340 622v113M1390 622v113"/></g>
<!-- playground -->
<g transform="translate(770 790)"><ellipse cx="120" cy="70" rx="155" ry="88" fill="#68765a" opacity=".7"/><path d="M20 95h95V55H20z" fill="#d1a84e"/><path d="M20 55l45-55 50 55" fill="#b66d45"/><path d="M0 100h180" stroke="#7a5a42" stroke-width="8"/><path d="M0 25v75M180 25v75" stroke="#4d514d" stroke-width="6"/><circle cx="120" cy="110" r="24" fill="none" stroke="#ba5d46" stroke-width="8"/></g>
<!-- parked cars -->
<g transform="translate(390 470)"><use href="#car"/><use href="#car" transform="translate(80 5) scale(.9)"/><use href="#car" transform="translate(170 -2) scale(1.1)"/></g>
<g transform="translate(1060 450)"><use href="#car" transform="scale(.9)"/><use href="#car" transform="translate(85 0) scale(.8)"/></g>
<g transform="translate(430 880)"><use href="#car" transform="scale(.9)"/><use href="#car" transform="translate(90 0)"/></g>
<!-- trees -->
<g transform="translate(350 245)"><use href="#tree"/></g><g transform="translate(455 250)"><use href="#tree" transform="scale(.8)"/></g><g transform="translate(760 250)"><use href="#tree"/></g><g transform="translate(1040 250)"><use href="#tree" transform="scale(1.1)"/></g><g transform="translate(1280 300)"><use href="#tree"/></g><g transform="translate(350 530)"><use href="#tree" transform="scale(.9)"/></g><g transform="translate(920 510)"><use href="#tree"/></g><g transform="translate(1260 510)"><use href="#tree" transform="scale(.85)"/></g><g transform="translate(680 800)"><use href="#tree"/></g><g transform="translate(1040 820)"><use href="#tree" transform="scale(.9)"/></g><g transform="translate(1450 800)"><use href="#tree"/></g><g transform="translate(680 1020)"><use href="#tree" transform="scale(.8)"/></g><g transform="translate(1180 1000)"><use href="#tree"/></g>
<!-- street furniture -->
<g transform="translate(560 340)"><use href="#lamp"/></g><g transform="translate(750 340)"><use href="#lamp"/></g><g transform="translate(560 760)"><use href="#lamp"/></g><g transform="translate(1010 760)"><use href="#lamp"/></g>
<g fill="#384345" stroke="#1d2425" stroke-width="3"><rect x="385" y="720" width="16" height="20" rx="2"/><rect x="915" y="720" width="16" height="20" rx="2"/><rect x="960" y="960" width="16" height="20" rx="2"/></g>
<!-- bus stop -->
<g transform="translate(1320 320)"><path d="M0 55h100" stroke="#252b2c" stroke-width="6"/><path d="M5 50V5h90v45" fill="#7a8582" stroke="#303738" stroke-width="4"/><path d="M15 40V14h70v26" fill="#516a6b"/><rect x="10" y="57" width="80" height="7" fill="#5e4735"/></g>
<!-- road details -->
<g fill="#151a1b" opacity=".55"><circle cx="250" cy="460" r="7"/><circle cx="1120" cy="480" r="5"/><circle cx="460" cy="520" r="4"/><circle cx="820" cy="470" r="6"/><circle cx="1360" cy="700" r="5"/></g>
<g stroke="#687071" opacity=".5"><path d="M190 490l55-8m-35 22 34-5m880 45 60-9m-500 390 80-8"/></g>
</svg>