mtllib CARGO_DECK_OPERATOR.mtl
o CARGO_DECK_OPERATOR
v -3.7 -2.9 0
v -.3 -2.9 0
v -3.7 2.9 0
v -.3 2.9 0
v -3.7 -2.9 1.3
v -.3 -2.9 1.3
v -3.7 2.9 1.3
v -.3 2.9 1.3
v .3 -2.9 0
v 3.7 -2.9 0
v .3 2.9 0
v 3.7 2.9 0
v .3 -2.9 1.3
v 3.7 -2.9 1.3
v .3 2.9 1.3
v 3.7 2.9 1.3
g boots_L
usemtl OperatorArmor
f 1 2 4 3
f 5 7 8 6
f 1 5 6 2
f 3 4 8 7
f 1 3 7 5
f 2 6 8 4
g boots_R
usemtl OperatorArmor
f 9 10 12 11
f 13 15 16 14
f 9 13 14 10
f 11 12 16 15
f 9 11 15 13
f 10 14 16 12
g shin_L
usemtl OperatorArmor
v -3.55 -2 0.75
v -.45 -2 .75
v -3.55 2 .75
v -.45 2 .75
v -3.55 -2 4.55
v -.45 -2 4.55
v -3.55 2 4.55
v -.45 2 4.55
f 17 18 20 19
f 21 23 24 22
f 17 21 22 18
f 19 20 24 23
f 17 19 23 21
f 18 22 24 20
g shin_R
v .45 -2 .75
v 3.55 -2 .75
v .45 2 .75
v 3.55 2 .75
v .45 -2 4.55
v 3.55 -2 4.55
v .45 2 4.55
v 3.55 2 4.55
f 25 26 28 27
f 29 31 32 30
f 25 29 30 26
f 27 28 32 31
f 25 27 31 29
f 26 30 32 28
g knee_L
v -3.75 -2.15 4
v -.25 -2.15 4
v -3.75 1.35 4
v -.25 1.35 4
v -3.75 -2.15 5.6
v -.25 -2.15 5.6
v -3.75 1.35 5.6
v -.25 1.35 5.6
f 33 34 36 35
f 37 39 40 38
f 33 37 38 34
f 35 36 40 39
f 33 35 39 37
f 34 38 40 36
g knee_R
v .25 -2.15 4
v 3.75 -2.15 4
v .25 1.35 4
v 3.75 1.35 4
v .25 -2.15 5.6
v 3.75 -2.15 5.6
v .25 1.35 5.6
v 3.75 1.35 5.6
f 41 42 44 43
f 45 47 48 46
f 41 45 46 42
f 43 44 48 47
f 41 43 47 45
f 42 46 48 44
g thigh_L
v -4 -2.2 5
v 0 -2.2 5
v -4 2.2 5
v 0 2.2 5
v -4 -2.2 8.2
v 0 -2.2 8.2
v -4 2.2 8.2
v 0 2.2 8.2
f 49 50 52 51
f 53 55 56 54
f 49 53 54 50
f 51 52 56 55
f 49 51 55 53
f 50 54 56 52
g thigh_R
v 0 -2.2 5
v 4 -2.2 5
v 0 2.2 5
v 4 2.2 5
v 0 -2.2 8.2
v 4 -2.2 8.2
v 0 2.2 8.2
v 4 2.2 8.2
f 57 58 60 59
f 61 63 64 62
f 57 61 62 58
f 59 60 64 63
f 57 59 63 61
f 58 62 64 60
g pelvis
v -4.5 -2.75 7.25
v 4.5 -2.75 7.25
v -4.5 2.75 7.25
v 4.5 2.75 7.25
v -4.5 -2.75 9.75
v 4.5 -2.75 9.75
v -4.5 2.75 9.75
v 4.5 2.75 9.75
f 65 66 68 67
f 69 71 72 70
f 65 69 70 66
f 67 68 72 71
f 65 67 71 69
f 66 70 72 68
g abdomen
v -5.25 -2.8 9.2
v 5.25 -2.8 9.2
v -5.25 2.8 9.2
v 5.25 2.8 9.2
v -5.25 -2.8 11.8
v 5.25 -2.8 11.8
v -5.25 2.8 11.8
v 5.25 2.8 11.8
f 73 74 76 75
f 77 79 80 78
f 73 77 78 74
f 75 76 80 79
f 73 75 79 77
f 74 78 80 76
g chest
v -6.6 -3.15 10.9
v 6.6 -3.15 10.9
v -6.6 3.15 10.9
v 6.6 3.15 10.9
v -6.6 -3.15 15.1
v 6.6 -3.15 15.1
v -6.6 3.15 15.1
v 6.6 3.15 15.1
f 81 82 84 83
f 85 87 88 86
f 81 85 86 82
f 83 84 88 87
f 81 83 87 85
f 82 86 88 84
g chest_plate
v -4.6 -3.75 12
v 4.6 -3.75 12
v -4.6 -2.95 12
v 4.6 -2.95 12
v -4.6 -3.75 14.6
v 4.6 -3.75 14.6
v -4.6 -2.95 14.6
v 4.6 -2.95 14.6
f 89 90 92 91
f 93 95 96 94
f 89 93 94 90
f 91 92 96 95
f 89 91 95 93
f 90 94 96 92
g shoulder_L
v -9.9 -2.7 11.9
v -6.1 -2.7 11.9
v -9.9 2.7 11.9
v -6.1 2.7 11.9
v -9.9 -2.7 15.5
v -6.1 -2.7 15.5
v -9.9 2.7 15.5
v -6.1 2.7 15.5
f 97 98 100 99
f 101 103 104 102
f 97 101 102 98
f 99 100 104 103
f 97 99 103 101
f 98 102 104 100
g shoulder_R
v 6.1 -2.7 11.9
v 9.9 -2.7 11.9
v 6.1 2.7 11.9
v 9.9 2.7 11.9
v 6.1 -2.7 15.5
v 9.9 -2.7 15.5
v 6.1 2.7 15.5
v 9.9 2.7 15.5
f 105 106 108 107
f 109 111 112 110
f 105 109 110 106
f 107 108 112 111
f 105 107 111 109
f 106 110 112 108
g upperarm_L
v -11 -2.25 8.8
v -7.6 -2.25 8.8
v -11 1.85 8.8
v -7.6 1.85 8.8
v -11 -2.25 13.6
v -7.6 -2.25 13.6
v -11 1.85 13.6
v -7.6 1.85 13.6
f 113 114 116 115
f 117 119 120 118
f 113 117 118 114
f 115 116 120 119
f 113 115 119 117
f 114 118 120 116
g upperarm_R
v 7.6 -2.25 8.8
v 11 -2.25 8.8
v 7.6 1.85 8.8
v 11 1.85 8.8
v 7.6 -2.25 13.6
v 11 -2.25 13.6
v 7.6 1.85 13.6
v 11 1.85 13.6
f 121 122 124 123
f 125 127 128 126
f 121 125 126 122
f 123 124 128 127
f 121 123 127 125
f 122 126 128 124
g forearm_L
v -11.45 -2.7 6.4
v -8.15 -2.7 6.4
v -11.45 1.7 6.4
v -8.15 1.7 6.4
v -11.45 -2.7 11
v -8.15 -2.7 11
v -11.45 1.7 11
v -8.15 1.7 11
f 129 130 132 131
f 133 135 136 134
f 129 133 134 130
f 131 132 136 135
f 129 131 135 133
f 130 134 136 132
g forearm_R
v 8.15 -2.7 6.4
v 11.45 -2.7 6.4
v 8.15 1.7 6.4
v 11.45 1.7 6.4
v 8.15 -2.7 11
v 11.45 -2.7 11
v 8.15 1.7 11
v 11.45 1.7 11
f 137 138 140 139
f 141 143 144 142
f 137 141 142 138
f 139 140 144 143
f 137 139 143 141
f 138 142 144 140
g neck
v -2.3 0 14.95
v -1.9919 1.15 14.95
v -1.15 1.9919 14.95
v 0 2.3 14.95
v 1.15 1.9919 14.95
v 1.9919 1.15 14.95
v 2.3 0 14.95
v 1.9919 -1.15 14.95
v 1.15 -1.9919 14.95
v 0 -2.3 14.95
v -1.15 -1.9919 14.95
v -1.9919 -1.15 14.95
v -2.3 0 16.65
v -1.9919 1.15 16.65
v -1.15 1.9919 16.65
v 0 2.3 16.65
v 1.15 1.9919 16.65
v 1.9919 1.15 16.65
v 2.3 0 16.65
v 1.9919 -1.15 16.65
v 1.15 -1.9919 16.65
v 0 -2.3 16.65
v -1.15 -1.9919 16.65
v -1.9919 -1.15 16.65
f 145 146 147 148 149 150 151 152 153 154 155 156
f 168 167 166 165 164 163 162 161 160 159 158 157
f 145 146 158 157
f 146 147 159 158
f 147 148 160 159
f 148 149 161 160
f 149 150 162 161
f 150 151 163 162
f 151 152 164 163
f 152 153 165 164
f 153 154 166 165
f 154 155 167 166
f 155 156 168 167
f 156 145 157 168
g head
v -3.25 -2.9 15.8
v 3.25 -2.9 15.8
v -3.25 2.9 15.8
v 3.25 2.9 15.8
v -3.25 -2.9 20.2
v 3.25 -2.9 20.2
v -3.25 2.9 20.2
v 3.25 2.9 20.2
f 169 170 172 171
f 173 175 176 174
f 169 173 174 170
f 171 172 176 175
f 169 171 175 173
f 170 174 176 172
g helmet
v -3.6 -3.15 18.8
v 3.6 -3.15 18.8
v -3.6 3.15 18.8
v 3.6 3.15 18.8
v -3.6 -3.15 21.2
v 3.6 -3.15 21.2
v -3.6 3.15 21.2
v 3.6 3.15 21.2
f 177 178 180 179
f 181 183 184 182
f 177 181 182 178
f 179 180 184 183
f 177 179 183 181
f 178 182 184 180
g visor
usemtl Visor
v -2.6 -3.55 17.25
v 2.6 -3.55 17.25
v -2.6 -2.75 17.25
v 2.6 -2.75 17.25
v -2.6 -3.55 19.15
v 2.6 -3.55 19.15
v -2.6 -2.75 19.15
v 2.6 -2.75 19.15
f 185 186 188 187
f 189 191 192 190
f 185 189 190 186
f 187 188 192 191
f 185 187 191 189
f 186 190 192 188
g backpack
usemtl OperatorArmor
v -4.25 2.4 9.8
v 4.25 2.4 9.8
v -4.25 5.2 9.8
v 4.25 5.2 9.8
v -4.25 2.4 17
v 4.25 2.4 17
v -4.25 5.2 17
v 4.25 5.2 17
f 193 194 196 195
f 197 199 200 198
f 193 197 198 194
f 195 196 200 199
f 193 195 199 197
f 194 198 200 196
g rifle
usemtl OperatorArmor
v -2.75 3.1 15.8
v 2.75 3.1 15.8
v -2.75 5.3 15.8
v 2.75 5.3 15.8
v -2.75 3.1 18.2
v 2.75 3.1 18.2
v -2.75 5.3 18.2
v 2.75 5.3 18.2
v -5 -3.1 5.5
v -3 -3.1 5.5
v -5 -1.9 5.5
v -3 -1.9 5.5
v -5 -3.1 8.1
v -3 -3.1 8.1
v -5 -1.9 8.1
v -3 -1.9 8.1
v -5.8 -3 7.7
v -3.6 -3 7.7
v -5.8 -1.6 7.7
v -3.6 -1.6 7.7
v -5.8 -3 9.7
v -3.6 -3 9.7
v -5.8 -1.6 9.7
v -3.6 -1.6 9.7
v 3 -3.1 5.5
v 5 -3.1 5.5
v 3 -1.9 5.5
v 5 -1.9 5.5
v 3 -3.1 8.1
v 5 -3.1 8.1
v 3 -1.9 8.1
v 5 -1.9 8.1
v 3.6 -3 7.7
v 5.8 -3 7.7
v 3.6 -1.6 7.7
v 5.8 -1.6 7.7
v 3.6 -3 9.7
v 5.8 -3 9.7
v 3.6 -1.6 9.7
v 5.8 -1.6 9.7
v -1.5 -11 10.3
v 1.5 -11 10.3
v -1.5 -1 10.3
v 1.5 -1 10.3
v -1.5 -11 12.5
v 1.5 -11 12.5
v -1.5 -1 12.5
v 1.5 -1 12.5
v -1.1 -3.6 10.5
v 1.1 -3.6 10.5
v -1.1 .4 10.5
v 1.1 .4 10.5
v -1.1 -3.6 12.3
v 1.1 -3.6 12.3
v -1.1 .4 12.3
v 1.1 .4 12.3
f 201 202 204 203
f 205 207 208 206
f 201 205 206 202
f 203 204 208 207
f 201 203 207 205
f 202 206 208 204
f 209 210 212 211
f 213 215 216 214
f 209 213 214 210
f 211 212 216 215
f 209 211 215 213
f 210 214 216 212
f 217 218 220 219
f 221 223 224 222
f 217 221 222 218
f 219 220 224 223
f 217 219 223 221
f 218 222 224 220
f 225 226 228 227
f 229 231 232 230
f 225 229 230 226
f 227 228 232 231
f 225 227 231 229
f 226 230 232 228
f 233 234 236 235
f 237 239 240 238
f 233 237 238 234
f 235 236 240 239
f 233 235 239 237
f 234 238 240 236